<?xml version="1.0"?>
<svg xmlns="http://www.w3.org/2000/svg" width="512" height="512" viewBox="0 0 512 512"><g><path d="M232,464H184a8,8,0,0,0,0,16h48a8,8,0,0,0,0-16Z"/><path d="M420,104H352V36A28.031,28.031,0,0,0,324,8H92A28.031,28.031,0,0,0,64,36V476a28.031,28.031,0,0,0,28,28H324a28.031,28.031,0,0,0,28-28V344h68a28.031,28.031,0,0,0,28-28V132A28.031,28.031,0,0,0,420,104ZM245.75,24l-4,16h-67.5l-4-16ZM336,476a12.01,12.01,0,0,1-12,12H92a12.01,12.01,0,0,1-12-12V36A12.01,12.01,0,0,1,92,24h61.75l6.49,25.94A8,8,0,0,0,168,56h80a8,8,0,0,0,7.76-6.06L262.25,24H324a12.01,12.01,0,0,1,12,12v68H236a28.031,28.031,0,0,0-28,28V316a28.031,28.031,0,0,0,28,28h4v24a8,8,0,0,0,13.66,5.66L283.31,344H336Zm96-160a12.01,12.01,0,0,1-12,12H280a8.008,8.008,0,0,0-5.66,2.34L256,348.69V336a8,8,0,0,0-8-8H236a12.01,12.01,0,0,1-12-12V132a12.01,12.01,0,0,1,12-12H420a12.01,12.01,0,0,1,12,12Z"/><path d="M392.036,261a68.008,68.008,0,0,1-70.4-110.682,8,8,0,0,0-7.144-13.283A88.006,88.006,0,1,0,401.035,273.11a8,8,0,0,0-9-12.112ZM328,296a72.01,72.01,0,0,1-31.558-136.727A84.021,84.021,0,0,0,372,280q.641,0,1.278-.009A71.926,71.926,0,0,1,328,296Z"/><path d="M152,296a8,8,0,0,0-8-8H128.645l21.6-27A8,8,0,0,0,144,248H112a8,8,0,0,0,0,16h15.355l-21.6,27A8,8,0,0,0,112,304h32A8,8,0,0,0,152,296Z"/><path d="M192,368a8,8,0,0,0-8-8H168.645l21.6-27A8,8,0,0,0,184,320H152a8,8,0,0,0,0,16h15.355l-21.6,27A8,8,0,0,0,152,376h32A8,8,0,0,0,192,368Z"/><path d="M160,192h15.355l-21.6,27A8,8,0,0,0,160,232h32a8,8,0,0,0,0-16H176.645l21.6-27A8,8,0,0,0,192,176H160a8,8,0,0,0,0,16Z"/></g></svg>
