<svg height="512" viewBox="0 0 60 60" width="512" xmlns="http://www.w3.org/2000/svg"><g id="Page-1" fill="none" fill-rule="evenodd"><g id="013---Rating" fill="rgb(0,0,0)" fill-rule="nonzero"><path id="Shape" d="m58.53 11.7905c.5610418-.7910084 1.027267-1.645156 1.3891-2.5449.2069773-.62401599-.0099761-1.31040327-.538-1.7021-.8059104-.50587553-1.6695759-.91328396-2.5725-1.2135-1.1243019-.33277539-2.2894413-.50748403-3.4619-.5191-.3643593-1.16977122-.8834565-2.28558639-1.5435-3.3178-.5321645-.78452322-1.1541085-1.50422912-1.8532-2.1445-.541745-.42321158-1.2977896-.43812226-1.8558-.0366-.7169415.64936841-1.354055 1.38175181-1.8979 2.1817-.6598625 1.03188787-1.1787934 2.14737079-1.543 3.3168-1.1768762.01202403-2.3463307.18805141-3.4746.523-.8400719.28487688-1.6478492.65732591-2.41 1.1112-1.211213-.30158753-2.45339-.46129361-3.7015-.4759-.4325275-1.42875042-1.0593228-2.79129339-1.8628-4.0494-.6347442-.94802846-1.3835155-1.81451428-2.2295-2.58-.5722974-.44145121-1.3698102-.44325619-1.9441-.0044-.8440477.76255215-1.5914832 1.6256494-2.2256 2.57-.8076114 1.26231649-1.4375609 2.62982607-1.8721 4.064-1.2487982.00969608-2.4919077.16940742-3.7026.4757-.7658694-.45567234-1.5776588-.8293053-2.4219-1.1147-1.1243019-.33277539-2.2894413-.50748403-3.4619-.5191-.3643593-1.16977122-.8834565-2.28558639-1.5435-3.3178-.5321645-.78452322-1.1541085-1.50422912-1.8532-2.1445-.541745-.42321158-1.2977896-.43812226-1.8558-.0366-.71694153.64936841-1.354055 1.38175181-1.8979 2.1817-.6598625 1.03188787-1.17879344 2.14737079-1.543 3.3168-1.17687617.01202403-2.34633073.18805141-3.4746.523-.89604494.29913959-1.75330631.70385209-2.5537 1.2056-.52982935.38907162-.75015275 1.07423546-.5464 1.6992.36257708.9036034.83051237 1.7612666 1.3941 2.5552.72579839.9661421 1.57935356 1.8293184 2.5373 2.5659-.36742498 1.1889703-.57590113 2.4213334-.62 3.665-.00850166.9682758.09372884 1.934349.3047 2.8794.17469415.6544269.77203195 1.1062324 1.4493 1.0962.94730438-.0839008 1.88010835-.2878341 2.776-.6069 1.10075869-.4219488 2.137384-.9951554 3.08-1.7031.9416983.7074815 1.9773481 1.2803519 3.0771 1.7021.9011603.3211633 1.8397789.5254621 2.7929.6079.6626007.0078023 1.2477321-.4306667 1.4263-1.0688.2171683-.9592224.3220395-1.9404475.3125-2.9239-.0452737-1.2382133-.2534647-2.4650674-.6192-3.6489.2441-.1875.47-.3832.6929-.5808.013.0175.0291.0412.041.0569.8870486 1.1849811 1.93791 2.2379637 3.1211 3.1274-.4576189 1.4438709-.717943 2.9429795-.7739 4.4566-.0139553 1.1466889.104665 2.2911487.3535 3.4106.1880856.6936085.8190493 1.1740633 1.5377 1.1709 1.1200421-.0970604 2.2226599-.33967 3.28-.7217.2684-.1074.5175-.2146.7583-.3222v10.9c.0459862.9507881-.0507887 1.9030993-.2871 2.8252-.071834.2203947-.2523963.3880624-.4775.4434-.2109857.0562156-.4359971-.0023526-.5928-.1543-.6383286-.605981-1.2053382-1.2829032-1.69-2.0176-1.4077-2.104-5.206-6.2295-7.6074-6.2295-1.3424379-.0267648-2.5764547.7341223-3.1554 1.9456-.4101918 1.0874192-.0936702 2.3152956.7911 3.0689 1.5024 1.4976 4.89 7.0884 6.5542 11.2363 1.3060531 2.7478345 3.135428 5.214605 5.3857 7.2622.7543672.7393982 1.1786366 1.7517969 1.1768 2.8081v.3023c.0029775 1.466016 1.192081 2.6529722 2.6581 2.6533h13.2685c1.4661394-.0002721 2.6554471-1.1871642 2.6587-2.6533v-2.5391c-.0066234-.1609426.0528441-.3175957.1646-.4336 3.1167-2.8413 3.1523-7.5722 3.1523-7.7724v-13.085c.0286427-1.8626362-1.3793414-3.4343678-3.2339-3.61-.6098573-.0383119-1.2190349.0848619-1.7661.3571v-1.02c.002438-1.9164834-1.5469269-3.4732743-3.4634-3.48-.5551679.0034784-1.1017162.1376317-1.5954.3916-.0702822-.4124541-.214498-.808819-.4257-1.17.0162-.0429.04-.0827.0519-.1271.2539523-1.1286973.3753728-2.2831659.3618-3.44-.0559997-1.513616-.3163228-3.0127189-.7739-4.4566 1.1822903-.8886833 2.2324631-1.9406743 3.1191-3.1245.0126-.0165.0295-.0413.0432-.06.2229.1976.4488.3933.6927.5808-.367425 1.1893126-.5759002 2.4220061-.62 3.666-.0085017.9682758.0937288 1.934349.3047 2.8794.1744754.6545158.7716995 1.1065349 1.449 1.0967.9472705-.0839092 1.8800404-.2878423 2.7759-.6069 1.1007936-.4219404 2.1374531-.9951473 3.0801-1.7031.9416983.7074815 1.9773481 1.2803519 3.0771 1.7021.9011603.3211633 1.8397789.5254621 2.7929.6079.6626007.0078023 1.2477321-.4306667 1.4263-1.0688.2171683-.9592224.3220395-1.9404475.3125-2.9239-.044977-1.2379164-.2531755-2.4644787-.6192-3.6479.9591186-.7374278 1.8137178-1.6016145 2.5404-2.5689zm-42.6592 2.543c.4428049 1.2003031.69257 2.4632032.74 3.7417-.0034088.628925-.0515638 1.2568105-.1441 1.8789-.5654543-.1005834-1.1225797-.2433829-1.6667-.4272-1.1516174-.4394397-2.2183426-1.0751846-3.1528-1.879-.3729782-.3173044-.9210218-.3173044-1.294 0-.93539185.8042682-2.00308992 1.4403465-3.1557 1.88-.54375695.1832314-1.10030404.3260532-1.6651.4273-.0907922-.6170353-.13857408-1.2396365-.143-1.8633.04596642-1.2842258.29574876-2.5529851.74-3.7588.03988896-.1135815.06017801-.2331179.06-.3535.00006248-.3301189-.16293025-.638963-.4355-.8252-1.03115749-.7002487-1.93858698-1.5672255-2.6851-2.5654-.3564962-.5183556-.67361872-1.06271527-.9487-1.6285.52472251-.27613752 1.06898082-.51344003 1.6284-.71 1.16662368-.35184592 2.38622901-.494843 3.6026-.4224.49346008.02147499.9305103-.31596529 1.0346-.7988.30791706-1.22778378.81373802-2.39722455 1.4976-3.4624.3393379-.48326313.713215-.94132693 1.1187-1.3706.4032237.42983678.775552.88764487 1.1142 1.37.6749005 1.05122867 1.1762739 2.20419502 1.4849 3.4147.0338043.22056891.1403464.42351613.3027.5766.1992247.19069138.469433.28885327.7446.2705 1.2119574-.07239729 2.4271936.06926742 3.59.4185.0977.03.2613.0909.4511.1672-.356584.1688046-.6984109.36716389-1.0219.593-.5709135.41880923-.8074442 1.1574631-.586 1.83.1487318.4091103.3280726.8064346.5365 1.1886-.4270352.4133464-.8868006.791479-1.3748 1.1307-.2716039.1908509-.4332095.5020471-.4331.834-.0000531.1171137.0203885.2333332.0604.3434zm24.666 13.4307c.3915958-.0020443.7675022.1537612 1.0428304.4322317.2753281.2784706.4268577.6561209.4203696 1.0476683v5.7859c0 .5522847.4477153 1 1 1s1-.4477153 1-1v-1.6535c.0133548-.4130504.1935042-.8030634.4993297-1.0810198.3058256-.2779564.7112261-.4201336 1.1236703-.3940802.8047605.1065867 1.3990779.803712 1.377 1.6152v13.0834c0 .04-.0439 4.0576-2.5 6.2964-.5283218.494449-.8247188 1.1880376-.8169 1.9116v2.5391c-.002093.3619821-.2967136.6540085-.6587.6529h-13.2685c-.361992.0009417-.6564367-.2913111-.6582-.6533v-.3023c.0005293-1.5975237-.6432635-3.1277438-1.7857-4.2444-1.395-1.3506-3.8891-4-4.92-6.5708-1.6343-4.0718-5.1665-10.0811-6.9985-11.9072-.3394-.3384-.4585-.6372-.3545-.8892.2746629-.4561172.7749909-.7275062 1.3071-.709.9917 0 4.1724 2.6919 5.9453 5.3418.5695411.8612006 1.2352964 1.6547458 1.9844 2.3653.6542928.6140761 1.5759894.853213 2.4463.6347.8844141-.2208763 1.595139-.8775013 1.8852-1.7417.3160417-1.1272877.4486364-2.2980851.3927-3.4675v-19.3764c.0507189-.8364801.7474117-1.4868556 1.5854-1.48.3866327.0000728.7564289.1582053 1.0235744.4377015s.4084149.656057.3910256 1.0422985v17.52c0 .5522847.4477153 1 1 1s1-.4477153 1-1v-7.2358c.0339879-.8344422.7259352-1.4902629 1.561-1.4795.3883355.0012272.759809.158817 1.0305684.4371968s.4179806.6540832.4084316 1.0423032v7.2358c0 .5522847.4477153 1 1 1s1-.4477153 1-1v-4.7559c.0266998-.8281203.7080613-1.4843398 1.5366-1.4799zm-.853-15.1387c-.910481 1.2176773-2.0178304 2.274837-3.2764 3.1279-.27391.1903581-.4371742.5028391-.437.8364.00003.1179516.0208485.2349749.0615.3457.5425252 1.4639787.8462314 3.005638.8995 4.566-.0005904.6745342-.0456549 1.3482955-.1349 2.0169-.3940532-.1526373-.8127215-.231843-1.2353-.2337-.5414803.0029868-1.0752449.1286328-1.5612.3675v-7.1722c.0185854-.9171815-.3330644-1.8031855-.9755607-2.4579876s-1.5216703-1.0231958-2.4390393-1.0220124c-1.9406589-.0031565-3.5306674 1.5401105-3.5854 3.48v6.2551c-.4862998.2552846-.9860646.4840527-1.4971.6853-.7252.2493042-1.4708999.4344158-2.2285.5532-.1367794-.8167616-.2055487-1.6434647-.2056-2.4716.0532686-1.560362.3569748-3.1020213.8995-4.566.0408017-.1142577.0616719-.2346756.0617-.356.0000804-.3308954-.1635292-.6404059-.437-.8267-1.2594871-.8537595-2.367503-1.9119226-3.2783-3.1308-.211673-.2946221-.4083884-.5997078-.5894-.9141-.2368807-.4011719-.4518621-.8148776-.644-1.2393.691181-.3824793 1.4140592-.70463953 2.1606-.9629.022-.0068.0444-.0141.0659-.0224 1.4038079-.40962017 2.8671488-.57704947 4.3272-.4951.2759731.01296654.5449333-.0892789.7426-.2823.1444514-.13870415.2445356-.31712266.2876-.5127.3832372-1.50024588 1.0039785-2.92953416 1.8387-4.2337.4463636-.64579098.9470485-1.25229348 1.4966-1.8129.5529639.56505265 1.0564425 1.17649362 1.5049 1.8276.8213883 1.2854648 1.4345773 2.6926035 1.8169 4.1694.0787267.5077842.5298513.87300097 1.0429.8443 1.4600793-.08292357 2.9235848.08452457 4.3272.4951.0215.0083.0439.0156.0659.0224.7462477.25806664 1.4686914.5804093 2.1592.9634-.1905095.4227422-.4041666.8346665-.64 1.2339-.1824261.317167-.3806417.6249869-.5939.9223zm14.562.5293c-.2730772.1904658-.4357226.5024611-.4355.8354-.0000094.117086.0204659.2332709.0605.3433.4428049 1.2003031.69257 2.4632032.74 3.7417-.0034088.628925-.0515638 1.2568105-.1441 1.8789-.5654543-.1005834-1.1225797-.2433829-1.6667-.4272-1.1516174-.4394397-2.2183426-1.0751846-3.1528-1.879-.3729782-.3173044-.9210218-.3173044-1.294 0-.9353919.8042682-2.0030899 1.4403465-3.1557 1.88-.543757.1832314-1.100304.3260532-1.6651.4273-.0907922-.6170353-.1385741-1.2396365-.143-1.8633.0459664-1.2842258.2957488-2.5529851.74-3.7588.0400485-.1134194.0605399-.2328177.0606-.3531.0000044-.3291421-.1619571-.6372093-.4331-.8238-.4880749-.3393188-.9479375-.7175157-1.3751-1.1309.2118794-.3899439.393933-.7953691.5446-1.2128.2106406-.6611978-.0227595-1.38314599-.5806-1.7959-.3282553-.22943985-.6750932-.43107349-1.0369-.6028.1865-.0751.3465-.1348.44-.1633 1.1666181-.35187272 2.3862282-.49487036 3.6026-.4224.4932562.02150533.9302368-.31555297 1.0347-.7981.307665-1.2279423.8133212-2.39756128 1.4971-3.4629.3393301-.48333198.7132074-.94146283 1.1187-1.3708.4032237.42983678.775552.88764487 1.1142 1.37.6748477 1.05122088 1.1762176 2.20414556 1.4849 3.4146.0337943.22071589.140329.42382504.3027.5771.1993047.19056269.4694543.28870328.7446.2705 1.2119614-.07253968 2.4272224.06912793 3.59.4185.5639253.19743669 1.1124581.43635648 1.6411.7148-.2744486.56461903-.5909397 1.1078152-.9468 1.625-.7468615.9992961-1.6549941 1.8671775-2.6871 2.568z"/></g></g></svg>